{
  "asset": {
    "generator": "Khronos glTF Blender I/O v1.6.16",
    "version": "2.0"
  },
  "scene": 0,
  "scenes": [
    {
      "name": "Scene",
      "nodes": [
        0
      ]
    }
  ],
  "nodes": [
    {
      "mesh": 0,
      "name": "modern_ceiling_lamp_01"
    }
  ],
  "materials": [
    {
      "doubleSided": true,
      "name": "modern_ceiling_lamp_01_glass",
      "normalTexture": {
        "index": 0
      },
      "pbrMetallicRoughness": {
        "baseColorTexture": {
          "index": 1
        },
        "metallicRoughnessTexture": {
          "index": 2
        }
      }
    },
    {
      "doubleSided": true,
      "name": "modern_ceiling_lamp_01",
      "normalTexture": {
        "index": 3
      },
      "pbrMetallicRoughness": {
        "baseColorTexture": {
          "index": 4
        },
        "metallicRoughnessTexture": {
          "index": 5
        }
      }
    },
    {
      "doubleSided": true,
      "emissiveFactor": [
        0.6229580640792847,
        0.5416215658187866,
        0.4745504856109619
      ],
      "name": "modern_ceiling_globe",
      "normalTexture": {
        "index": 6
      },
      "pbrMetallicRoughness": {
        "baseColorTexture": {
          "index": 7
        },
        "metallicRoughnessTexture": {
          "index": 8
        }
      }
    }
  ],
  "meshes": [
    {
      "name": "Cylinder.003",
      "primitives": [
        {
          "attributes": {
            "POSITION": 0,
            "NORMAL": 1,
            "TEXCOORD_0": 2
          },
          "indices": 3,
          "material": 0
        },
        {
          "attributes": {
            "POSITION": 4,
            "NORMAL": 5,
            "TEXCOORD_0": 6
          },
          "indices": 7,
          "material": 1
        },
        {
          "attributes": {
            "POSITION": 8,
            "NORMAL": 9,
            "TEXCOORD_0": 10
          },
          "indices": 11,
          "material": 2
        }
      ]
    }
  ],
  "textures": [
    {
      "sampler": 0,
      "source": 0
    },
    {
      "sampler": 0,
      "source": 1
    },
    {
      "sampler": 0,
      "source": 2
    },
    {
      "sampler": 0,
      "source": 0
    },
    {
      "sampler": 0,
      "source": 1
    },
    {
      "sampler": 0,
      "source": 2
    },
    {
      "sampler": 0,
      "source": 0
    },
    {
      "sampler": 0,
      "source": 1
    },
    {
      "sampler": 0,
      "source": 2
    }
  ],
  "images": [
    {
      "mimeType": "image/jpeg",
      "name": "modern_ceiling_lamp_01_gl_normal",
      "uri": "textures/modern_ceiling_lamp_01_nor_gl_1k.jpg"
    },
    {
      "mimeType": "image/jpeg",
      "name": "modern_ceiling_lamp_01_basecolor",
      "uri": "textures/modern_ceiling_lamp_01_diff_1k.jpg"
    },
    {
      "mimeType": "image/jpeg",
      "name": "modern_ceiling_lamp_01_metallic-modern_ceiling_lamp_01_roughness",
      "uri": "textures/modern_ceiling_lamp_01_arm_1k.jpg"
    }
  ],
  "accessors": [
    {
      "bufferView": 0,
      "componentType": 5126,
      "count": 1642,
      "max": [
        0.21585291624069214,
        0.5282803177833557,
        0.2173331081867218
      ],
      "min": [
        -0.21579641103744507,
        0.22109216451644897,
        -0.2143276482820511
      ],
      "type": "VEC3"
    },
    {
      "bufferView": 1,
      "componentType": 5126,
      "count": 1642,
      "type": "VEC3"
    },
    {
      "bufferView": 2,
      "componentType": 5126,
      "count": 1642,
      "type": "VEC2"
    },
    {
      "bufferView": 3,
      "componentType": 5123,
      "count": 8832,
      "type": "SCALAR"
    },
    {
      "bufferView": 4,
      "componentType": 5126,
      "count": 1714,
      "max": [
        0.1473923921585083,
        1.1726436614990234,
        0.14887076616287231
      ],
      "min": [
        -0.14733590185642242,
        0.4579848647117615,
        -0.1458652913570404
      ],
      "type": "VEC3"
    },
    {
      "bufferView": 5,
      "componentType": 5126,
      "count": 1714,
      "type": "VEC3"
    },
    {
      "bufferView": 6,
      "componentType": 5126,
      "count": 1714,
      "type": "VEC2"
    },
    {
      "bufferView": 7,
      "componentType": 5123,
      "count": 7062,
      "type": "SCALAR"
    },
    {
      "bufferView": 8,
      "componentType": 5126,
      "count": 182,
      "max": [
        0.03558715060353279,
        0.462555468082428,
        0.03706158325076103
      ],
      "min": [
        -0.0355304516851902,
        0.37690940499305725,
        -0.034056030213832855
      ],
      "type": "VEC3"
    },
    {
      "bufferView": 9,
      "componentType": 5126,
      "count": 182,
      "type": "VEC3"
    },
    {
      "bufferView": 10,
      "componentType": 5126,
      "count": 182,
      "type": "VEC2"
    },
    {
      "bufferView": 11,
      "componentType": 5123,
      "count": 912,
      "type": "SCALAR"
    }
  ],
  "bufferViews": [
    {
      "buffer": 0,
      "byteLength": 19704,
      "byteOffset": 0
    },
    {
      "buffer": 0,
      "byteLength": 19704,
      "byteOffset": 19704
    },
    {
      "buffer": 0,
      "byteLength": 13136,
      "byteOffset": 39408
    },
    {
      "buffer": 0,
      "byteLength": 17664,
      "byteOffset": 52544
    },
    {
      "buffer": 0,
      "byteLength": 20568,
      "byteOffset": 70208
    },
    {
      "buffer": 0,
      "byteLength": 20568,
      "byteOffset": 90776
    },
    {
      "buffer": 0,
      "byteLength": 13712,
      "byteOffset": 111344
    },
    {
      "buffer": 0,
      "byteLength": 14124,
      "byteOffset": 125056
    },
    {
      "buffer": 0,
      "byteLength": 2184,
      "byteOffset": 139180
    },
    {
      "buffer": 0,
      "byteLength": 2184,
      "byteOffset": 141364
    },
    {
      "buffer": 0,
      "byteLength": 1456,
      "byteOffset": 143548
    },
    {
      "buffer": 0,
      "byteLength": 1824,
      "byteOffset": 145004
    }
  ],
  "samplers": [
    {
      "magFilter": 9729,
      "minFilter": 9987
    }
  ],
  "buffers": [
    {
      "byteLength": 146828,
      "uri": "modern_ceiling_lamp_01.bin"
    }
  ]
}